<?xml version="1.0" encoding="UTF-8"?> <!-- Generator: Adobe Illustrator 16.0.0, SVG Export Plug-In . SVG Version: 6.00 Build 0) --> <svg xmlns="http://www.w3.org/2000/svg" xmlns:xlink="http://www.w3.org/1999/xlink" version="1.1" id="Layer_1" x="0px" y="0px" width="120px" height="114.88px" viewBox="0 0 120 114.88" xml:space="preserve"> <g> <path fill="#FFFFFF" stroke="#FFFFFF" stroke-miterlimit="10" d="M87.686,58.505c2.104-1.962,16.122-14.707,17.585-26.736 c0.632-5.2,1.633-27.874-38.79-19.39c-27.503,5.772-51.797,28.655-54.955,40.519c-0.363,1.365-0.579,2.99-0.582,4.685 c-0.005,2.824,0.58,5.839,2.055,8.153c5.353,8.397,11.544,10.979,12.088,10.291c0.952-1.203-4.129-5.721-4.932-6.503 c-1.771-1.724-3.248-3.581-4.128-5.597c-3.356-7.684,2.108-16.108,8.85-23.889c9.556-11.029,35.988-27.57,58.523-25.594 c12.574,1.102,18.294,8.336,17.958,15.557c-0.165,3.552-1.567,6.862-3.498,10.36c-4.584,8.306-11.646,14.575-16.791,19.039 c-9.353,8.114-17.047,11.575-17.047,11.575c0.047-0.781,0.211-2.565,0.265-3.346c0.135-1.905,0.272-3.877,0.277-5.822 c0.017-6.345,0.014-13.109-0.219-19.921l-0.018-0.637c-0.052-2.004-0.11-4.277-1.661-6.05c-0.363-0.415-1.77-1.314-2.311-0.85 c-0.438,0.37-1.481,1.357-1.718,2.525c-0.151,0.739,0.264,1.548,0.631,2.262l0.17,0.336c0.17,0.345,0.399,0.654,0.621,0.952 c0.278,0.374,0.541,0.728,0.643,1.098c0.253,0.906,0.254,1.93,0.255,2.996v0.732c0.005,5.875,0.011,11.949-0.054,17.923 c-0.016,1.336-0.098,2.698-0.178,4.016c-0.072,1.194-0.146,2.429-0.171,3.648c-0.024,1.162-0.236,1.571-1.118,2.281 c-1.894,1.524-3.831,2.512-5.483,4.025c-0.636,0.582-0.655,1.088-0.561,1.408c0.145,0.485,0.648,0.843,1.345,0.956 c0.88,0.143,2.008,0.176,2.285-0.009c0.919-0.613,1.64-0.936,2.571-1.652c0.192-0.147,0.387-0.298,0.584-0.449 c0.015,0.302,0.025,0.56,0.021,0.815l-0.074,4.106c-0.138,7.628-0.228,8.447-0.387,16.076l-0.008,0.562 c-0.008,0.979-0.018,1.989-0.352,2.799c-0.308,0.749-0.356,1.362-0.144,1.821c0.15,0.324,0.43,0.562,0.808,0.685 c0.229,0.073,0.528,0.116,0.85,0.119h0.016h0.016h0.033c0.698-0.006,1.481-0.2,1.848-0.659c0.719-0.904,0.991-2.213,1.007-3.138 c0.07-4.255,0.022-1.772,0.02-5.956l0.004-6.064c0.004-4.173-0.016-12.52-0.016-12.52S75.491,69.872,87.686,58.505z"></path> <path fill="#FFFFFF" stroke="#FFFFFF" stroke-miterlimit="10" d="M108.979,95.396c-0.156-0.494-1.057-0.852-1.562-0.806h-0.003 c-0.916,0.032-1.405-0.058-1.637-0.303c-0.231-0.246-0.303-0.728-0.24-1.61c0.034-0.459,0.086-0.924,0.137-1.374 c0.067-0.6,0.137-1.219,0.164-1.828c0.03-0.682-0.149-1.251-0.505-1.604c-0.299-0.294-0.694-0.421-1.14-0.375 c-0.684,0.06-1.644,0.42-2.142,1.071c-0.593,0.775-1.118,1.616-1.625,2.431c-0.415,0.664-0.875,1.402-1.36,2.073 c-0.334,0.465-1.012,0.928-1.261,0.862c-0.399-0.085-0.945-0.639-1.213-1.233c-0.332-0.741-0.578-1.549-0.815-2.328 c-0.134-0.441-0.286-0.941-0.454-1.419c-0.228-0.643-0.633-1.102-1.141-1.292c-0.461-0.175-0.978-0.113-1.456,0.17 c-1.075,0.637-2.069,1.486-2.873,2.463c-0.775,0.941-2.814,4.031-2.814,4.031s-0.073-0.258-0.067-0.562 c0.043-2.329,0.155-4.655,0.235-6.982l0.004-0.106c0.193-5.648,0.354-10.508,0.489-16.256c0.028-1.229-0.289-2.421-0.944-3.542 c-0.489-0.836-0.939-1.258-1.344-1.258c-0.05,0-0.098,0.006-0.146,0.019c-0.877,0.228-1.328,2.446-1.344,2.8 c-0.016,0.346,0.099,0.682,0.2,0.979c0.09,0.261,0.173,0.506,0.169,0.725c-0.029,1.457-0.051,1.954-0.11,3.385l-0.007,0.157 c-0.046,1.105-0.092,2.247-0.123,3.372l-0.065,2.321c-0.139,4.941-0.283,10.052-0.338,15.088c-0.014,1.239,0.251,2.619,0.747,3.886 c0.287,0.741,1.185,1.504,1.999,1.699c0.725,0.181,1.692-0.772,1.992-1.184c1.135-1.555,2.191-3.122,3.311-4.782 c0.254-0.377,0.501-0.744,0.749-1.109l0.115-0.17L92.623,93c0.578,1.815,1.452,3.792,3.555,4.686 c1.979,0.843,3.146-0.409,4.176-1.515c0.371-0.398,0.745-0.801,1.154-1.123l0.109-0.086l0.261,0.764 c0.436,1.273,1.631,2.261,3.119,2.577c1.429,0.301,2.779-0.075,3.623-1.015C109.044,96.816,109.147,95.928,108.979,95.396z"></path> <path fill="#FFFFFF" stroke="#FFFFFF" stroke-miterlimit="10" d="M108.142,79.211c-0.479-0.708-1.21-1.161-1.867-1.161 c-0.008,0-0.017,0-0.024,0c-0.463,0.008-0.933,0.189-1.319,0.645c-0.603,0.708-0.313,1.659-0.245,1.976 c0.178,0.826,1.279,1.628,1.915,1.628c0.757,0,1.612-0.575,1.874-1.197C108.701,80.562,108.577,79.855,108.142,79.211z"></path> </g> </svg> 